<svg width="21" height="16" viewBox="0 0 21 16" fill="none" xmlns="http://www.w3.org/2000/svg">
<path d="M1.05063 0.000109673H19.9512C20.1425 0.000720024 20.3301 0.05443 20.4937 0.155457C20.6573 0.256483 20.7907 0.401 20.8796 0.573454C20.9685 0.745909 21.0095 0.939769 20.9982 1.13417C20.9868 1.32856 20.9236 1.51614 20.8153 1.6767L11.3651 15.5681C10.9734 16.1441 10.0305 16.1441 9.63778 15.5681L0.187508 1.6767C0.0781207 1.51647 0.0139737 1.3288 0.00203593 1.13408C-0.00990182 0.939362 0.0308264 0.745034 0.119795 0.572215C0.208765 0.399396 0.342572 0.254693 0.506679 0.15383C0.670787 0.0529671 0.858918 -0.000198364 1.05063 0.000109673ZM10.5009 13.0826L17.9477 2.13725H3.05409L10.5009 13.0826Z" fill="#4AC8FF"/>
</svg>
