<svg width="17" height="13" viewBox="0 0 17 13" fill="none" xmlns="http://www.w3.org/2000/svg">
<path d="M16.1495 13L0.849051 13C0.694142 12.9995 0.542298 12.9559 0.409865 12.8738C0.27743 12.7917 0.169423 12.6743 0.0974644 12.5342C0.0255059 12.394 -0.00767624 12.2365 0.00149049 12.0786C0.0106572 11.9206 0.0618219 11.7682 0.149482 11.6378L7.7997 0.350975C8.11676 -0.116993 8.88008 -0.116993 9.19799 0.350975L16.8482 11.6378C16.9368 11.768 16.9887 11.9204 16.9984 12.0786C17.008 12.2369 16.975 12.3947 16.903 12.5352C16.831 12.6756 16.7227 12.7931 16.5898 12.8751C16.457 12.9571 16.3047 13.0002 16.1495 13ZM8.49927 2.37044L2.4709 11.2636L14.5276 11.2636L8.49927 2.37044Z" fill="#FC7447"/>
</svg>
