<svg width="21" height="16" viewBox="0 0 21 16" fill="none" xmlns="http://www.w3.org/2000/svg">
<path d="M1.05063 16.0001H19.9512C20.1425 15.9995 20.3301 15.9458 20.4937 15.8448C20.6573 15.7437 20.7907 15.5992 20.8796 15.4268C20.9685 15.2543 21.0095 15.0604 20.9982 14.866C20.9868 14.6716 20.9236 14.4841 20.8153 14.3235L11.3651 0.432077C10.9734 -0.143883 10.0305 -0.143883 9.63778 0.432077L0.187508 14.3235C0.0781207 14.4837 0.0139737 14.6714 0.00203593 14.8661C-0.00990182 15.0609 0.0308264 15.2552 0.119795 15.428C0.208765 15.6008 0.342572 15.7455 0.506679 15.8464C0.670787 15.9472 0.858918 16.0004 1.05063 16.0001Z" fill="#FC7447"/>
</svg>
