<svg width="28" height="21" viewBox="0 0 28 21" fill="none" xmlns="http://www.w3.org/2000/svg">
<path d="M13.3803 0.423838C13.4616 0.342352 13.5581 0.277702 13.6644 0.233591C13.7707 0.18948 13.8847 0.166774 13.9998 0.166774C14.1149 0.166774 14.2289 0.18948 14.3352 0.233591C14.4415 0.277702 14.538 0.342352 14.6193 0.423838L17.2443 3.04884C17.3257 3.13019 17.3902 3.22677 17.4342 3.33307C17.4782 3.43936 17.5009 3.55329 17.5009 3.66834C17.5009 3.78339 17.4782 3.89732 17.4342 4.00361C17.3902 4.1099 17.3257 4.20648 17.2443 4.28784C17.1629 4.36919 17.0664 4.43373 16.9601 4.47775C16.8538 4.52178 16.7398 4.54444 16.6248 4.54444C16.5097 4.54444 16.3958 4.52178 16.2895 4.47775C16.1832 4.43373 16.0867 4.36919 16.0053 4.28784L14.8748 3.15559V6.29334C14.8748 6.5254 14.7826 6.74796 14.6185 6.91206C14.4544 7.07615 14.2319 7.16834 13.9998 7.16834C13.7677 7.16834 13.5452 7.07615 13.3811 6.91206C13.217 6.74796 13.1248 6.5254 13.1248 6.29334V3.15559L11.9943 4.28784C11.9129 4.36919 11.8164 4.43373 11.7101 4.47775C11.6038 4.52178 11.4898 4.54444 11.3748 4.54444C11.2597 4.54444 11.1458 4.52178 11.0395 4.47775C10.9332 4.43373 10.8367 4.36919 10.7553 4.28784C10.6739 4.20648 10.6094 4.1099 10.5654 4.00361C10.5214 3.89732 10.4987 3.78339 10.4987 3.66834C10.4987 3.55329 10.5214 3.43936 10.5654 3.33307C10.6094 3.22677 10.6739 3.13019 10.7553 3.04884L13.3803 0.423838ZM4.10005 6.01859C4.26413 5.85455 4.48665 5.7624 4.71867 5.7624C4.95069 5.7624 5.17321 5.85455 5.3373 6.01859L7.8118 8.49309C7.97119 8.65811 8.05938 8.87914 8.05739 9.10856C8.05539 9.33799 7.96337 9.55745 7.80114 9.71968C7.63891 9.88191 7.41945 9.97393 7.19002 9.97593C6.9606 9.97792 6.73957 9.88973 6.57455 9.73034L4.10005 7.25584C3.93601 7.09175 3.84386 6.86923 3.84386 6.63721C3.84386 6.40519 3.93601 6.18267 4.10005 6.01859ZM23.8995 6.01859C24.0636 6.18267 24.1557 6.40519 24.1557 6.63721C24.1557 6.86923 24.0636 7.09175 23.8995 7.25584L21.425 9.73034C21.3443 9.81391 21.2478 9.88057 21.141 9.92643C21.0343 9.97228 20.9195 9.99642 20.8033 9.99743C20.6871 9.99844 20.5719 9.9763 20.4643 9.93231C20.3568 9.88831 20.2591 9.82334 20.177 9.74118C20.0948 9.65903 20.0298 9.56133 19.9858 9.4538C19.9418 9.34626 19.9197 9.23104 19.9207 9.11486C19.9217 8.99868 19.9459 8.88386 19.9917 8.77711C20.0376 8.67035 20.1042 8.5738 20.1878 8.49309L22.6623 6.01859C22.8264 5.85455 23.0489 5.7624 23.2809 5.7624C23.5129 5.7624 23.7355 5.85455 23.8995 6.01859ZM13.9998 10.6683C14.9215 10.6681 15.827 10.9104 16.6254 11.3711C17.4237 11.8318 18.0867 12.4945 18.5476 13.2926C19.0086 14.0908 19.2513 14.9962 19.2514 15.9179C19.2515 16.8396 19.0089 17.7451 18.548 18.5433H9.4498C8.98887 17.745 8.74628 16.8393 8.74643 15.9175C8.74658 14.9956 8.98946 14.0901 9.45064 13.2919C9.91182 12.4937 10.575 11.831 11.3736 11.3704C12.1722 10.9099 13.0779 10.6677 13.9998 10.6683ZM20.4923 18.5433C20.9214 17.4808 21.083 16.3292 20.9631 15.1896C20.8432 14.05 20.4453 12.9573 19.8045 12.0074C19.1636 11.0575 18.2994 10.2794 17.2876 9.74146C16.2758 9.20354 15.1474 8.92224 14.0015 8.92224C12.8557 8.92224 11.7273 9.20354 10.7155 9.74146C9.70374 10.2794 8.83948 11.0575 8.19863 12.0074C7.55778 12.9573 7.15992 14.05 7.03999 15.1896C6.92006 16.3292 7.08173 17.4808 7.5108 18.5433H0.873047C0.640982 18.5433 0.418423 18.6355 0.254328 18.7996C0.0902341 18.9637 -0.00195312 19.1863 -0.00195312 19.4183C-0.00195312 19.6504 0.0902341 19.873 0.254328 20.0371C0.418423 20.2012 0.640982 20.2933 0.873047 20.2933H27.123C27.3551 20.2933 27.5777 20.2012 27.7418 20.0371C27.9059 19.873 27.998 19.6504 27.998 19.4183C27.998 19.1863 27.9059 18.9637 27.7418 18.7996C27.5777 18.6355 27.3551 18.5433 27.123 18.5433H20.4905H20.4923ZM-0.000203125 15.9183C-0.000203125 15.6863 0.0919841 15.4637 0.256078 15.2996C0.420173 15.1355 0.642732 15.0433 0.874797 15.0433H4.3748C4.60686 15.0433 4.82942 15.1355 4.99352 15.2996C5.15761 15.4637 5.2498 15.6863 5.2498 15.9183C5.2498 16.1504 5.15761 16.373 4.99352 16.5371C4.82942 16.7012 4.60686 16.7933 4.3748 16.7933H0.874797C0.642732 16.7933 0.420173 16.7012 0.256078 16.5371C0.0919841 16.373 -0.000203125 16.1504 -0.000203125 15.9183ZM22.7498 15.9183C22.7498 15.6863 22.842 15.4637 23.0061 15.2996C23.1702 15.1355 23.3927 15.0433 23.6248 15.0433H27.1248C27.3569 15.0433 27.5794 15.1355 27.7435 15.2996C27.9076 15.4637 27.9998 15.6863 27.9998 15.9183C27.9998 16.1504 27.9076 16.373 27.7435 16.5371C27.5794 16.7012 27.3569 16.7933 27.1248 16.7933H23.6248C23.3927 16.7933 23.1702 16.7012 23.0061 16.5371C22.842 16.373 22.7498 16.1504 22.7498 15.9183Z" fill="#2D55A9"/>
</svg>
