<svg width="28" height="21" viewBox="0 0 28 21" fill="none" xmlns="http://www.w3.org/2000/svg">
<path d="M13.3803 6.91127C13.4616 6.99276 13.5581 7.05741 13.6644 7.10152C13.7707 7.14563 13.8847 7.16834 13.9998 7.16834C14.1149 7.16834 14.2289 7.14563 14.3352 7.10152C14.4415 7.05741 14.538 6.99276 14.6193 6.91127L17.2443 4.28627C17.3257 4.20492 17.3902 4.10834 17.4342 4.00205C17.4782 3.89575 17.5009 3.78183 17.5009 3.66677C17.5009 3.55172 17.4782 3.4378 17.4342 3.3315C17.3902 3.22521 17.3257 3.12863 17.2443 3.04727C17.1629 2.96592 17.0664 2.90139 16.9601 2.85736C16.8538 2.81333 16.7398 2.79067 16.6248 2.79067C16.5097 2.79067 16.3958 2.81333 16.2895 2.85736C16.1832 2.90139 16.0867 2.96592 16.0053 3.04727L14.8748 4.17952V1.04177C14.8748 0.80971 14.7826 0.587151 14.6185 0.423056C14.4544 0.258962 14.2319 0.166775 13.9998 0.166775C13.7677 0.166775 13.5452 0.258962 13.3811 0.423056C13.217 0.587151 13.1248 0.80971 13.1248 1.04177V4.17952L11.9943 3.04727C11.9129 2.96592 11.8164 2.90139 11.7101 2.85736C11.6038 2.81333 11.4898 2.79067 11.3748 2.79067C11.2597 2.79067 11.1458 2.81333 11.0395 2.85736C10.9332 2.90139 10.8367 2.96592 10.7553 3.04727C10.6739 3.12863 10.6094 3.22521 10.5654 3.3315C10.5214 3.4378 10.4987 3.55172 10.4987 3.66677C10.4987 3.78183 10.5214 3.89575 10.5654 4.00205C10.6094 4.10834 10.6739 4.20492 10.7553 4.28627L13.3803 6.91127ZM4.10005 6.01877C4.26413 5.85474 4.48665 5.76259 4.71867 5.76259C4.95069 5.76259 5.17321 5.85474 5.3373 6.01877L7.8118 8.49152C7.97119 8.65655 8.05938 8.87758 8.05739 9.107C8.05539 9.33642 7.96337 9.55588 7.80114 9.71812C7.63891 9.88035 7.41945 9.97237 7.19002 9.97437C6.9606 9.97636 6.73957 9.88816 6.57455 9.72878L4.10005 7.25428C3.93601 7.09019 3.84386 6.86767 3.84386 6.63565C3.84386 6.40363 3.93601 6.18286 4.10005 6.01877ZM23.8995 6.01877C24.063 6.18279 24.1549 6.40493 24.1549 6.63652C24.1549 6.86811 24.063 7.09026 23.8995 7.25428L21.425 9.72878C21.3443 9.81235 21.2478 9.87901 21.141 9.92486C21.0343 9.97072 20.9195 9.99486 20.8033 9.99587C20.6871 9.99688 20.5719 9.97474 20.4643 9.93074C20.3568 9.88675 20.2591 9.82178 20.177 9.73962C20.0948 9.65746 20.0298 9.55977 19.9858 9.45223C19.9418 9.3447 19.9197 9.22948 19.9207 9.1133C19.9217 8.99712 19.9459 8.8823 19.9917 8.77555C20.0376 8.66879 20.1042 8.57224 20.1878 8.49152L22.6623 6.01702C22.8264 5.85299 23.0489 5.76084 23.2809 5.76084C23.5129 5.76084 23.7355 5.85474 23.8995 6.01877ZM13.9998 10.6668C14.9215 10.6665 15.827 10.9089 16.6254 11.3695C17.4237 11.8302 18.0867 12.4929 18.5476 13.2911C19.0086 14.0892 19.2513 14.9947 19.2514 15.9164C19.2515 16.8381 19.0089 17.7436 18.548 18.5418H9.4498C8.98887 17.7434 8.74628 16.8378 8.74643 15.9159C8.74658 14.9941 8.98946 14.0885 9.45064 13.2903C9.91182 12.4921 10.575 11.8294 11.3736 11.3689C12.1722 10.9083 13.0779 10.6662 13.9998 10.6668ZM20.4923 18.5418C20.9214 17.4793 21.083 16.3276 20.9631 15.1881C20.8432 14.0485 20.4453 12.9557 19.8045 12.0058C19.1636 11.0559 18.2994 10.2778 17.2876 9.7399C16.2758 9.20198 15.1474 8.92068 14.0015 8.92068C12.8557 8.92068 11.7273 9.20198 10.7155 9.7399C9.70374 10.2778 8.83948 11.0559 8.19863 12.0058C7.55778 12.9557 7.15992 14.0485 7.03999 15.1881C6.92006 16.3276 7.08173 17.4793 7.5108 18.5418H0.873047C0.640982 18.5418 0.418423 18.634 0.254328 18.7981C0.0902341 18.9622 -0.00195312 19.1847 -0.00195312 19.4168C-0.00195312 19.6488 0.0902341 19.8714 0.254328 20.0355C0.418423 20.1996 0.640982 20.2918 0.873047 20.2918H27.123C27.3551 20.2918 27.5777 20.1996 27.7418 20.0355C27.9059 19.8714 27.998 19.6488 27.998 19.4168C27.998 19.1847 27.9059 18.9622 27.7418 18.7981C27.5777 18.634 27.3551 18.5418 27.123 18.5418H20.4905H20.4923ZM-0.000203125 15.9168C-0.000203125 15.6847 0.0919841 15.4621 0.256078 15.2981C0.420173 15.134 0.642732 15.0418 0.874797 15.0418H4.3748C4.60686 15.0418 4.82942 15.134 4.99352 15.2981C5.15761 15.4621 5.2498 15.6847 5.2498 15.9168C5.2498 16.1488 5.15761 16.3714 4.99352 16.5355C4.82942 16.6996 4.60686 16.7918 4.3748 16.7918H0.874797C0.642732 16.7918 0.420173 16.6996 0.256078 16.5355C0.0919841 16.3714 -0.000203125 16.1488 -0.000203125 15.9168ZM22.7498 15.9168C22.7498 15.6847 22.842 15.4621 23.0061 15.2981C23.1702 15.134 23.3927 15.0418 23.6248 15.0418H27.1248C27.3569 15.0418 27.5794 15.134 27.7435 15.2981C27.9076 15.4621 27.9998 15.6847 27.9998 15.9168C27.9998 16.1488 27.9076 16.3714 27.7435 16.5355C27.5794 16.6996 27.3569 16.7918 27.1248 16.7918H23.6248C23.3927 16.7918 23.1702 16.6996 23.0061 16.5355C22.842 16.3714 22.7498 16.1488 22.7498 15.9168Z" fill="#2D55A9"/>
</svg>
