<svg width="289" height="30" viewBox="0 0 289 30" fill="none" xmlns="http://www.w3.org/2000/svg">
<path d="M7.43665 20.7347C9.07296 20.7347 10.3063 20.3684 11.1367 19.6357C11.9914 18.8786 12.4188 17.9139 12.4188 16.7416C12.4188 15.7403 12.0891 14.9099 11.4297 14.2505C10.7947 13.5911 9.78121 13.066 8.38913 12.6753L5.20199 11.7228C4.17625 11.4053 3.28483 11.0023 2.52773 10.5139C1.77063 10.001 1.18449 9.37824 0.769309 8.64557C0.378549 7.88847 0.183169 7.00926 0.183169 6.00794C0.183169 4.1274 0.866999 2.66205 2.23466 1.61189C3.60232 0.537296 5.4218 0 7.69309 0C9.0119 0 10.1842 0.146535 11.2099 0.439606C12.2601 0.708253 13.0783 1.06238 13.6644 1.50198C14.275 1.94159 14.5802 2.40562 14.5802 2.89407C14.5802 3.21156 14.4948 3.50463 14.3238 3.77328C14.1528 4.0175 13.933 4.21288 13.6644 4.35942C13.0538 3.87097 12.2235 3.44358 11.1733 3.07724C10.1476 2.7109 9.02412 2.52773 7.80299 2.52773C6.38649 2.52773 5.26305 2.84522 4.43268 3.48021C3.60232 4.09077 3.18714 4.93335 3.18714 6.00794C3.18714 6.86273 3.48021 7.55877 4.06635 8.09606C4.67691 8.63336 5.65381 9.09739 6.99705 9.48814L9.23171 10.1476C11.1611 10.6848 12.6753 11.4664 13.7743 12.4921C14.8977 13.5179 15.4594 14.9344 15.4594 16.7416C15.4594 18.671 14.7512 20.234 13.3347 21.4308C11.9426 22.6275 9.97659 23.2258 7.43665 23.2258C5.94688 23.2258 4.64028 23.0671 3.51684 22.7496C2.41783 22.4077 1.55083 21.9925 0.915844 21.504C0.305281 20.9911 0 20.4905 0 20.002C0 19.5869 0.122113 19.2449 0.366338 18.9763C0.634985 18.6832 0.940266 18.4756 1.28218 18.3535C1.8439 18.8908 2.63763 19.4281 3.66338 19.9654C4.68912 20.4783 5.94688 20.7347 7.43665 20.7347Z" fill="white"/>
<path d="M60.2538 2.54325H60.1042C59.7302 3.59046 59.2814 4.83715 58.7578 6.28331C58.2591 7.72947 57.7355 9.2255 57.187 10.7714C56.6634 12.2923 56.1647 13.7136 55.691 15.0351L55.504 15.5961C55.3544 16.0449 55.1674 16.6059 54.943 17.2791C54.7185 17.9523 54.4817 18.6629 54.2323 19.4109C53.983 20.134 53.7461 20.8197 53.5217 21.468C53.2973 22.0913 53.1228 22.6025 52.9981 23.0014C52.8236 23.0762 52.6366 23.1261 52.4371 23.151C52.2626 23.2009 52.0382 23.2258 51.7639 23.2258C51.365 23.2258 51.0034 23.1261 50.6793 22.9266C50.3801 22.7022 50.2305 22.3531 50.2305 21.8794C50.2305 21.655 50.2679 21.4306 50.3427 21.2062C50.4175 20.9568 50.5047 20.695 50.6045 20.4208C50.9037 19.573 51.2652 18.5383 51.6891 17.3165C52.1379 16.0947 52.6241 14.7608 53.1477 13.3146C53.6713 11.8685 54.2199 10.3849 54.7933 8.86396C55.3668 7.343 55.9278 5.85944 56.4764 4.41328C57.0249 2.96712 57.5361 1.64563 58.0098 0.448809C58.2093 0.349073 58.5085 0.249338 58.9074 0.149603C59.3064 0.0498676 59.7178 0 60.1416 0C60.6403 0 61.1141 0.0748011 61.5629 0.224403C62.0366 0.374007 62.3358 0.623345 62.4605 0.972418C63.0589 2.41858 63.6947 4.0642 64.3679 5.9093C65.0661 7.72947 65.7642 9.6369 66.4624 11.6316C67.1605 13.6014 67.8212 15.5213 68.4446 17.3913C69.0929 19.2613 69.6663 20.9568 70.165 22.4778C69.9905 22.7022 69.7536 22.8767 69.4544 23.0014C69.1801 23.151 68.8685 23.2258 68.5194 23.2258C68.0456 23.2258 67.6841 23.1261 67.4348 22.9266C67.1854 22.7022 66.9735 22.3407 66.799 21.842L64.7419 15.7457L64.4427 14.6985C63.944 13.1775 63.4204 11.6441 62.8719 10.0982C62.3483 8.55228 61.8496 7.11859 61.3759 5.7971C60.9271 4.47561 60.553 3.39099 60.2538 2.54325ZM54.0453 16.8677L55.0178 14.3619H65.4525L66.0509 16.8677H54.0453Z" fill="white"/>
<path d="M40.5216 4.19105C38.3691 3.82642 36.1683 4.07373 34.1253 4.90982L33.7259 5.07986C31.1889 6.2204 28.4216 6.58085 25.7154 6.12324C24.5518 5.92358 23.3847 5.62087 22.3245 5.03606C22.0598 4.88925 21.8557 4.63591 21.7537 4.32778C21.6518 4.01965 21.6597 3.67996 21.7759 3.3781C21.8921 3.07624 22.1078 2.83497 22.379 2.70357C22.6501 2.57216 22.9563 2.56054 23.2349 2.67106L23.3592 2.72903C24.1965 3.18116 25.1557 3.42075 26.0684 3.57661C28.2212 3.94042 30.422 3.69222 32.4647 2.85526L32.8642 2.68781C35.4012 1.54726 38.1685 1.18681 40.8747 1.64442C42.0208 1.84022 43.2181 2.15323 44.2656 2.73031C44.4021 2.80587 44.5239 2.91054 44.6239 3.03833C44.724 3.16611 44.8004 3.31452 44.8487 3.47506C44.897 3.6356 44.9163 3.80513 44.9055 3.97395C44.8947 4.14278 44.8541 4.3076 44.7858 4.45898C44.646 4.76175 44.4048 4.99171 44.1139 5.09958C43.823 5.20745 43.5056 5.18465 43.2297 5.03606C42.3843 4.59552 41.4391 4.34691 40.5216 4.19105ZM40.5216 11.9198C38.3691 11.5552 36.1683 11.8025 34.1253 12.6386L33.7259 12.8086C31.1889 13.9492 28.4216 14.3097 25.7154 13.852C24.5518 13.6523 23.3847 13.3496 22.3245 12.7648C22.0598 12.618 21.8557 12.3647 21.7537 12.0565C21.6518 11.7484 21.6597 11.4087 21.7759 11.1069C21.8921 10.805 22.1078 10.5637 22.379 10.4323C22.6501 10.3009 22.9563 10.2893 23.2349 10.3998L23.3592 10.4578C24.1965 10.9099 25.1557 11.1495 26.0684 11.3054C28.2212 11.6692 30.422 11.421 32.4647 10.584L32.8642 10.4166C35.4012 9.27602 38.1685 8.91557 40.8747 9.37318C42.0208 9.56898 43.2181 9.88199 44.2656 10.4591C44.4021 10.5346 44.5239 10.6393 44.6239 10.7671C44.724 10.8949 44.8004 11.0433 44.8487 11.2038C44.897 11.3644 44.9163 11.5339 44.9055 11.7027C44.8947 11.8715 44.8541 12.0364 44.7858 12.1877C44.646 12.4905 44.4048 12.7205 44.1139 12.8283C43.823 12.9362 43.5056 12.9134 43.2297 12.7648C42.3843 12.3243 41.4391 12.0757 40.5216 11.9198ZM33.3008 20.7177L33.7259 20.5374C36.398 19.3523 38.7948 19.3523 40.5216 19.6486C41.4391 19.8044 42.3843 20.053 43.2286 20.4936C43.5045 20.6422 43.8219 20.665 44.1127 20.5571C44.4036 20.4492 44.6448 20.2193 44.7847 19.9165C44.8529 19.7651 44.8936 19.6003 44.9044 19.4315C44.9151 19.2626 44.8958 19.0931 44.8475 18.9326C44.7992 18.772 44.7228 18.6236 44.6228 18.4958C44.5227 18.3681 44.401 18.2634 44.2644 18.1878C43.2181 17.6108 42.0208 17.2977 40.8747 17.1019C38.3212 16.6695 35.7104 16.9665 33.2892 17.965L32.8642 18.1453C30.7124 19.1147 28.3645 19.4218 26.0684 19.0341C25.2857 18.9002 24.4705 18.7057 23.725 18.3682L23.3592 18.1878C23.0849 18.0481 22.7724 18.0323 22.4879 18.1437C22.2033 18.2552 21.969 18.4851 21.8346 18.7849C21.7003 19.0846 21.6764 19.4306 21.768 19.7496C21.8597 20.0685 22.0597 20.3354 22.3256 20.4936C23.3847 21.0797 24.5518 21.3824 25.7154 21.5795C27.6698 21.9144 30.3373 21.9273 33.3008 20.7177Z" fill="#79D4FC"/>
<path d="M90.6801 2.60377L90.4914 0H99.2838C99.3593 0.100629 99.4348 0.264151 99.5103 0.490566C99.5857 0.716982 99.6235 0.955975 99.6235 1.20755C99.6235 1.61006 99.5228 1.94969 99.3216 2.22642C99.1203 2.47799 98.831 2.60377 98.4537 2.60377H90.6801ZM90.7555 0L90.9442 2.60377H82.114C82.0386 2.47799 81.9631 2.30189 81.8876 2.07547C81.8121 1.84906 81.7744 1.61006 81.7744 1.35849C81.7744 0.930818 81.875 0.603773 82.0763 0.377358C82.2776 0.125786 82.5669 0 82.9442 0H90.7555ZM89.1706 1.58491H92.2272V22.8679C92.1015 22.9182 91.9002 22.9686 91.6235 23.0189C91.3719 23.0943 91.1077 23.1321 90.831 23.1321C90.2776 23.1321 89.8625 23.0189 89.5857 22.7925C89.309 22.566 89.1706 22.2138 89.1706 21.7358V1.58491Z" fill="white"/>
<path d="M102.039 16.1509L101.888 13.7736L113.284 12.2264C113.184 10.8428 112.706 9.71069 111.85 8.83019C110.995 7.92453 109.812 7.4717 108.303 7.4717C106.743 7.4717 105.448 8.03773 104.416 9.16981C103.41 10.2767 102.907 11.8742 102.907 13.9623V14.7925C103.083 16.805 103.737 18.3396 104.869 19.3962C106.026 20.4277 107.599 20.9434 109.586 20.9434C110.643 20.9434 111.599 20.7673 112.454 20.4151C113.309 20.0629 113.989 19.6855 114.492 19.283C114.768 19.4591 114.982 19.673 115.133 19.9245C115.309 20.1509 115.397 20.4151 115.397 20.717C115.397 21.195 115.121 21.6478 114.567 22.0755C114.039 22.478 113.322 22.805 112.416 23.0566C111.536 23.3082 110.542 23.434 109.435 23.434C107.498 23.434 105.812 23.0818 104.378 22.3774C102.97 21.673 101.875 20.6289 101.095 19.2453C100.341 17.8365 99.9634 16.1258 99.9634 14.1132C99.9634 12.6792 100.165 11.4088 100.567 10.3019C100.995 9.16981 101.573 8.21384 102.303 7.43396C103.058 6.65409 103.951 6.06289 104.982 5.66038C106.014 5.2327 107.133 5.01887 108.341 5.01887C109.875 5.01887 111.221 5.34591 112.378 6C113.561 6.65409 114.479 7.57233 115.133 8.75472C115.812 9.91195 116.152 11.2453 116.152 12.7547C116.152 13.3082 116.026 13.7107 115.775 13.9623C115.523 14.1887 115.171 14.327 114.718 14.3774L102.039 16.1509Z" fill="white"/>
<path d="M134.588 10.8679V15.2075H131.569V11.0943C131.569 9.86164 131.204 8.95598 130.475 8.37736C129.77 7.79874 128.827 7.50943 127.645 7.50943C126.865 7.50943 126.11 7.63522 125.381 7.88679C124.651 8.13836 124.035 8.42767 123.531 8.75472V15.2075H120.513V8.90566C120.513 8.40252 120.613 7.97484 120.815 7.62264C121.041 7.27044 121.418 6.93082 121.947 6.60377C122.626 6.1761 123.481 5.81132 124.513 5.50943C125.569 5.18239 126.626 5.01887 127.682 5.01887C128.965 5.01887 130.098 5.22013 131.079 5.62264C132.06 6 132.789 6.5283 133.267 7.20755C133.418 7.35849 133.544 7.49686 133.645 7.62264C133.745 7.74843 133.846 7.91195 133.947 8.11321C134.123 8.41509 134.274 8.80503 134.399 9.28302C134.525 9.76101 134.588 10.2893 134.588 10.8679ZM145.645 10.9434V15.2075H142.626V11.0943C142.626 9.86164 142.274 8.95598 141.569 8.37736C140.865 7.79874 139.921 7.50943 138.739 7.50943C137.859 7.50943 137.003 7.69811 136.173 8.07547C135.368 8.42767 134.638 8.9434 133.984 9.62264L132.777 7.43396C133.431 6.77987 134.286 6.21384 135.343 5.73585C136.399 5.25786 137.607 5.01887 138.965 5.01887C140.324 5.01887 141.494 5.2327 142.475 5.66038C143.481 6.08805 144.261 6.74214 144.815 7.62264C145.368 8.50314 145.645 9.61006 145.645 10.9434ZM120.513 13.2075H123.531V22.8679C123.406 22.9182 123.217 22.9686 122.965 23.0189C122.714 23.0943 122.437 23.1321 122.135 23.1321C121.607 23.1321 121.204 23.0314 120.928 22.8302C120.651 22.6038 120.513 22.2516 120.513 21.7736V13.2075ZM131.569 13.2075H134.588V22.8679C134.462 22.9182 134.261 22.9686 133.984 23.0189C133.733 23.0943 133.469 23.1321 133.192 23.1321C132.638 23.1321 132.223 23.0314 131.947 22.8302C131.695 22.6038 131.569 22.2516 131.569 21.7736V13.2075ZM142.626 13.2075H145.645V22.8679C145.519 22.9182 145.318 22.9686 145.041 23.0189C144.789 23.0943 144.525 23.1321 144.248 23.1321C143.695 23.1321 143.28 23.0314 143.003 22.8302C142.752 22.6038 142.626 22.2516 142.626 21.7736V13.2075Z" fill="white"/>
<path d="M158.754 23.434C157.673 23.434 156.654 23.2704 155.698 22.9434C154.767 22.6415 154.088 22.3019 153.66 21.9245V19.1321C154.163 19.6101 154.792 20.0377 155.547 20.4151C156.327 20.7673 157.258 20.9434 158.339 20.9434C160.1 20.9434 161.509 20.4151 162.566 19.3585C163.647 18.2767 164.188 16.5535 164.188 14.1887C164.188 12.5283 163.912 11.2201 163.358 10.2642C162.83 9.28302 162.113 8.57862 161.207 8.15094C160.327 7.72327 159.371 7.50943 158.339 7.50943C157.434 7.50943 156.666 7.62264 156.037 7.84906C155.408 8.07547 154.842 8.32704 154.339 8.60377V21.1321H151.32V8.67924C151.32 8.1761 151.408 7.77358 151.585 7.4717C151.761 7.16981 152.125 6.85535 152.679 6.5283C153.358 6.15094 154.163 5.81132 155.094 5.50943C156.05 5.18239 157.132 5.01887 158.339 5.01887C160 5.01887 161.496 5.34591 162.83 6C164.188 6.62893 165.257 7.62264 166.037 8.98113C166.842 10.3145 167.245 12.0503 167.245 14.1887C167.245 16.2516 166.88 17.9748 166.151 19.3585C165.446 20.717 164.452 21.7358 163.169 22.4151C161.886 23.0943 160.415 23.434 158.754 23.434ZM154.339 20.1132V29.7358C154.213 29.7862 154.025 29.8365 153.773 29.8868C153.522 29.9623 153.245 30 152.943 30C152.415 30 152.012 29.8868 151.735 29.6604C151.459 29.434 151.32 29.0818 151.32 28.6038V20.0377L154.339 20.1132Z" fill="white"/>
<path d="M173.015 16.1509L172.864 13.7736L184.26 12.2264C184.159 10.8428 183.681 9.71069 182.826 8.83019C181.971 7.92453 180.788 7.4717 179.279 7.4717C177.719 7.4717 176.423 8.03773 175.392 9.16981C174.386 10.2767 173.883 11.8742 173.883 13.9623V14.7925C174.059 16.805 174.713 18.3396 175.845 19.3962C177.002 20.4277 178.574 20.9434 180.562 20.9434C181.618 20.9434 182.574 20.7673 183.43 20.4151C184.285 20.0629 184.964 19.6855 185.468 19.283C185.744 19.4591 185.958 19.673 186.109 19.9245C186.285 20.1509 186.373 20.4151 186.373 20.717C186.373 21.195 186.096 21.6478 185.543 22.0755C185.015 22.478 184.298 22.805 183.392 23.0566C182.512 23.3082 181.518 23.434 180.411 23.434C178.474 23.434 176.788 23.0818 175.354 22.3774C173.945 21.673 172.851 20.6289 172.071 19.2453C171.317 17.8365 170.939 16.1258 170.939 14.1132C170.939 12.6792 171.14 11.4088 171.543 10.3019C171.971 9.16981 172.549 8.21384 173.279 7.43396C174.034 6.65409 174.927 6.06289 175.958 5.66038C176.99 5.2327 178.109 5.01887 179.317 5.01887C180.851 5.01887 182.197 5.34591 183.354 6C184.537 6.65409 185.455 7.57233 186.109 8.75472C186.788 9.91195 187.128 11.2453 187.128 12.7547C187.128 13.3082 187.002 13.7107 186.751 13.9623C186.499 14.1887 186.147 14.327 185.694 14.3774L173.015 16.1509Z" fill="white"/>
<path d="M194.507 8.75472V14.717H191.488V8.98113C191.488 8.40252 191.589 7.94969 191.79 7.62264C192.017 7.27044 192.382 6.93082 192.885 6.60377C193.539 6.1761 194.432 5.81132 195.564 5.50943C196.696 5.18239 197.954 5.01887 199.337 5.01887C201.35 5.01887 202.356 5.52201 202.356 6.5283C202.356 6.77987 202.319 7.01887 202.243 7.24528C202.168 7.44654 202.067 7.62264 201.941 7.77359C201.69 7.72327 201.363 7.67296 200.96 7.62264C200.558 7.57233 200.155 7.54717 199.753 7.54717C198.595 7.54717 197.576 7.67296 196.696 7.92453C195.815 8.15094 195.086 8.42767 194.507 8.75472ZM191.488 12.9811L194.507 13.434V22.8679C194.382 22.9182 194.193 22.9686 193.941 23.0189C193.69 23.0943 193.413 23.1321 193.111 23.1321C192.583 23.1321 192.18 23.0314 191.904 22.8302C191.627 22.6038 191.488 22.2516 191.488 21.7736V12.9811Z" fill="white"/>
<path d="M211.939 20.9811C212.996 20.9811 213.864 20.8805 214.543 20.6792C215.248 20.4528 215.751 20.239 216.053 20.0377V14.566L211.373 15.0566C210.065 15.1572 209.097 15.4465 208.468 15.9245C207.839 16.4025 207.524 17.0943 207.524 18C207.524 18.9308 207.889 19.6604 208.619 20.1887C209.373 20.717 210.48 20.9811 211.939 20.9811ZM211.902 5.01887C214.09 5.01887 215.826 5.50943 217.109 6.49057C218.392 7.4717 219.034 9.01887 219.034 11.1321V20.0755C219.034 20.6289 218.921 21.0566 218.694 21.3585C218.493 21.6352 218.178 21.8994 217.751 22.1509C217.147 22.478 216.342 22.7799 215.336 23.0566C214.329 23.3333 213.197 23.4717 211.939 23.4717C209.575 23.4717 207.738 23.0063 206.43 22.0755C205.147 21.1447 204.506 19.7987 204.506 18.0377C204.506 16.4025 205.046 15.1572 206.128 14.3019C207.235 13.4214 208.757 12.8931 210.694 12.717L216.053 12.1887V11.1321C216.053 9.87421 215.675 8.95598 214.921 8.37736C214.166 7.79874 213.147 7.50943 211.864 7.50943C210.833 7.50943 209.839 7.66038 208.883 7.96226C207.952 8.26415 207.122 8.60377 206.392 8.98113C206.191 8.80503 206.002 8.60378 205.826 8.37736C205.675 8.12579 205.6 7.87421 205.6 7.62264C205.6 6.96855 205.965 6.46541 206.694 6.11321C207.373 5.76101 208.153 5.49686 209.034 5.32076C209.939 5.1195 210.895 5.01887 211.902 5.01887Z" fill="white"/>
<path d="M224.582 12.9811H227.601V18.1887C227.601 19.195 227.89 19.9119 228.469 20.3396C229.047 20.7421 229.84 20.9434 230.846 20.9434C231.274 20.9434 231.752 20.8679 232.28 20.717C232.808 20.566 233.249 20.3899 233.601 20.1887C233.752 20.3396 233.89 20.5283 234.016 20.7547C234.142 20.9811 234.205 21.2453 234.205 21.5472C234.205 22.1006 233.877 22.5535 233.223 22.9057C232.569 23.2579 231.664 23.434 230.506 23.434C228.745 23.434 227.311 23.044 226.205 22.2642C225.123 21.4843 224.582 20.1887 224.582 18.3774V12.9811ZM226.129 8.37736V5.88679H233.789C233.865 5.98742 233.94 6.15094 234.016 6.37736C234.091 6.60377 234.129 6.84277 234.129 7.09434C234.129 7.49686 234.028 7.81132 233.827 8.03774C233.626 8.26415 233.349 8.37736 232.997 8.37736H226.129ZM227.601 14.1132H224.582V0.452831C224.708 0.402516 224.896 0.352201 225.148 0.301887C225.425 0.226415 225.714 0.188679 226.016 0.188679C226.544 0.188679 226.934 0.301887 227.186 0.528302C227.462 0.72956 227.601 1.06918 227.601 1.54717V14.1132Z" fill="white"/>
<path d="M238.4 16.566V13.1321H241.419V16.4151C241.419 18.0252 241.847 19.1824 242.702 19.8868C243.558 20.5912 244.74 20.9434 246.249 20.9434C247.256 20.9434 248.111 20.8428 248.815 20.6415C249.52 20.4151 250.073 20.1887 250.476 19.9623V13.1321H253.495V19.8491C253.495 20.3774 253.419 20.805 253.268 21.1321C253.142 21.434 252.815 21.7358 252.287 22.0377C251.734 22.3648 250.941 22.6792 249.91 22.9811C248.878 23.283 247.646 23.434 246.212 23.434C244.551 23.434 243.13 23.195 241.947 22.717C240.79 22.2138 239.91 21.4591 239.306 20.4528C238.702 19.4214 238.4 18.1258 238.4 16.566ZM253.495 15.0943H250.476V5.58491C250.602 5.53459 250.79 5.48428 251.042 5.43396C251.319 5.35849 251.595 5.32076 251.872 5.32076C252.425 5.32076 252.828 5.43396 253.08 5.66038C253.356 5.86164 253.495 6.21384 253.495 6.71698V15.0943ZM241.419 15.0943H238.4V5.58491C238.526 5.53459 238.715 5.48428 238.966 5.43396C239.243 5.35849 239.532 5.32076 239.834 5.32076C240.363 5.32076 240.752 5.43396 241.004 5.66038C241.281 5.86164 241.419 6.21384 241.419 6.71698V15.0943Z" fill="white"/>
<path d="M262.167 8.75472V14.717H259.148V8.98113C259.148 8.40252 259.248 7.94969 259.45 7.62264C259.676 7.27044 260.041 6.93082 260.544 6.60377C261.198 6.1761 262.091 5.81132 263.223 5.50943C264.355 5.18239 265.613 5.01887 266.997 5.01887C269.009 5.01887 270.016 5.52201 270.016 6.5283C270.016 6.77987 269.978 7.01887 269.902 7.24528C269.827 7.44654 269.726 7.62264 269.6 7.77359C269.349 7.72327 269.022 7.67296 268.619 7.62264C268.217 7.57233 267.814 7.54717 267.412 7.54717C266.255 7.54717 265.236 7.67296 264.355 7.92453C263.475 8.15094 262.745 8.42767 262.167 8.75472ZM259.148 12.9811L262.167 13.434V22.8679C262.041 22.9182 261.852 22.9686 261.6 23.0189C261.349 23.0943 261.072 23.1321 260.77 23.1321C260.242 23.1321 259.839 23.0314 259.563 22.8302C259.286 22.6038 259.148 22.2516 259.148 21.7736V12.9811Z" fill="white"/>
<path d="M274.282 16.1509L274.131 13.7736L285.528 12.2264C285.427 10.8428 284.949 9.71069 284.094 8.83019C283.238 7.92453 282.056 7.4717 280.547 7.4717C278.987 7.4717 277.691 8.03773 276.66 9.16981C275.653 10.2767 275.15 11.8742 275.15 13.9623V14.7925C275.326 16.805 275.98 18.3396 277.113 19.3962C278.27 20.4277 279.842 20.9434 281.83 20.9434C282.886 20.9434 283.842 20.7673 284.697 20.4151C285.553 20.0629 286.232 19.6855 286.735 19.283C287.012 19.4591 287.226 19.673 287.377 19.9245C287.553 20.1509 287.641 20.4151 287.641 20.717C287.641 21.195 287.364 21.6478 286.811 22.0755C286.282 22.478 285.565 22.805 284.66 23.0566C283.779 23.3082 282.785 23.434 281.679 23.434C279.741 23.434 278.056 23.0818 276.622 22.3774C275.213 21.673 274.119 20.6289 273.339 19.2453C272.584 17.8365 272.207 16.1258 272.207 14.1132C272.207 12.6792 272.408 11.4088 272.811 10.3019C273.238 9.16981 273.817 8.21384 274.547 7.43396C275.301 6.65409 276.194 6.06289 277.226 5.66038C278.257 5.2327 279.377 5.01887 280.584 5.01887C282.119 5.01887 283.465 5.34591 284.622 6C285.804 6.65409 286.723 7.57233 287.377 8.75472C288.056 9.91195 288.396 11.2453 288.396 12.7547C288.396 13.3082 288.27 13.7107 288.018 13.9623C287.767 14.1887 287.414 14.327 286.962 14.3774L274.282 16.1509Z" fill="white"/>
</svg>
